<?xml version="1.0" encoding="utf-8"?>
<!-- Generator: Adobe Illustrator 16.0.0, SVG Export Plug-In . SVG Version: 6.00 Build 0)  -->
<!DOCTYPE svg PUBLIC "-//W3C//DTD SVG 1.1//EN" "http://www.w3.org/Graphics/SVG/1.1/DTD/svg11.dtd">
<svg version="1.1" id="Layer_1" xmlns="http://www.w3.org/2000/svg" xmlns:xlink="http://www.w3.org/1999/xlink" x="0px" y="0px"
	 width="400px" height="400px" viewBox="0 0 400 400" enable-background="new 0 0 400 400" xml:space="preserve">
<g>
	<path fill-rule="evenodd" clip-rule="evenodd" fill="#222C1C" d="M243.498,33.338c4.172-4.743,7.783-9.31,11.867-13.405
		c13.219-13.258,29.887-15.497,47.542-14.546c21.142,1.139,38.071,10.299,52.063,25.98c12.334,13.824,23.656,28.345,33.746,44.068
		c-12.452,7.223-25.784,5.494-39.501,4.521c11.799,22.061,16.987,45.71,21.271,69.611c1.35,7.528,2.188,15.146,3.427,22.695
		c0.583,3.557-0.529,4.407-3.889,3.342c-3.478-1.104-7.06-1.88-11.052-2.918c1.835,10.506,2.246,21.068,2.231,31.683
		c-0.097,72.286-55.761,140.173-126.664,154.752c-35.38,7.274-69.44,3.851-102.274-11.2c-2.252-1.032-4.011-0.744-6.127-0.014
		c-10.087,3.48-20.365,4.664-30.875,2.111c-5.631-1.367-11.008-3.776-14.418-8.352c-3.865-5.185-8.792-8.622-13.913-12.275
		c-10.537-7.518-15.506-18.017-14.013-31.125c0.317-2.785-0.539-4.363-2.797-6.127c-8.569-6.689-9.702-16.191-8.96-26.165
		c0.196-2.638,0.359-5.509,1.492-7.801c3.49-7.065,2.093-13.841,0.397-21.057c-5.772-24.563-5.455-49.186,0.833-73.647
		c1.047-4.074,0.286-7.866-0.416-11.768c-3.444-19.138-8.231-38.027-10.811-57.318c-2.663-19.915-1.491-39.856,0.04-59.795
		c0.268-3.487,1.966-4.546,5.023-4.765c3.499-0.251,6.562,0.906,9.441,2.669c18.863,11.547,37.606,23.282,55.565,36.209
		c2.259,1.626,3.698,2.159,6.333,0.347c35.628-24.494,74.929-33.26,117.604-26.729c3.548,0.542,4.259-0.164,4.251-3.521
		c-0.01-4.854-0.637-9.63-1.057-14.434c-0.342-3.906,1.232-6.682,5.154-7.238c4.135-0.587,6.63,1.609,7.199,5.785
		C242.66,26.191,243.026,29.483,243.498,33.338z"/>
	<path fill-rule="evenodd" clip-rule="evenodd" fill="#FD933E" d="M346.006,158.053c3.129,13.278,5.972,26.577,6.109,40.333
		c0.471,46.839-16.672,85.888-51.509,117.178c-0.729,0.655-1.62,1.13-2.437,1.689c-4.638-6.372-5.514-18.532,0.461-24.674
		c13.576-13.955,21.742-31.352,27.308-49.928c1.798-5.999,0.704-11.092-4.804-14.909c-14.783-10.243-29.633-20.364-45.918-28.148
		c-3.622-1.731-7.448-2.925-11.378-3.717c-6.003-1.211-9.12,0.719-11.033,6.462c-1.727,5.183-1.493,10.513-1.497,15.841
		c-0.01,9.729-3.791,15.813-13.136,18.812c-13.528,4.342-26.959,3.452-39.791-2.968c-7.28-3.643-10.861-10.057-12.547-17.717
		c-1.181-5.361-1.767-10.841-3.621-16.068c-4.805-13.553-15.786-21.214-30.144-20.924c-5.333,0.108-10.186,1.59-14.413,4.881
		c-14.856,11.565-30.104,22.603-45.255,33.772c-0.669,0.493-1.286,1.06-1.977,1.526c-6.324,4.272-11.094,2.104-11.586-5.547
		c-0.332-5.162-0.789-10.31-1.669-15.38c-1.603-9.233-6.544-12.279-15.763-10.218c-2.65,0.593-4.981,1.843-7.306,3.156
		c-1.563,0.884-2.995,2.218-5.04,1.661c-0.444-7.558,0.525-15.074,2.583-22.218c2.545-8.836,1.607-17.275-0.048-26.005
		c-3.5-18.451-8.428-36.651-10.056-55.439c-0.78-8.998-0.681-17.975,1.377-26.819c1.935-8.308,5.507-10.461,13.803-8.251
		c7.494,1.997,14.077,5.948,20.495,10.149c7.938,5.196,15.842,10.447,23.697,15.769c2.81,1.904,4.992,2.009,7.978-0.219
		c30.616-22.848,65.155-32.488,103.16-29.942c5.124,0.343,10.208,1.271,15.348,1.935c-0.417,1.812-1.855,1.435-2.878,1.694
		c-3.832,0.977-6.842,2.932-7.432,7.089c-0.628,4.412,1.512,7.737,5.08,10.112c5.696,3.791,11.759,3.695,17.506,0.504
		c2.703-1.501,4.174-0.832,5.966,0.947c3.31,3.285,6.836,6.367,9.962,9.816c2.803,3.093,4.413,2.833,5.467-1.169
		c2.24-4.198,3.858-9.06,9.857-9.255c7.283-0.647,12.938-4.907,18.687-8.739c10.038-6.69,15.538-5.438,21.81,5.125
		c3.978,6.697,8.05,13.41,15.541,16.929c2.053,0.568,2.643,2.365,3.358,4.037c4.382,10.238,8.104,20.694,11.063,31.448
		c2.247,8.163,2.17,16.434,1.924,24.72C343.174,149.905,343.049,154.263,346.006,158.053z"/>
	<path fill-rule="evenodd" clip-rule="evenodd" fill="#E4E4E4" d="M158.87,319.914c3.084-1.245,41.651-20.725,64.106-34.247
		c24.356-14.667,35.203-32.522,31.047-37.137c-2.977-2.137-5.854,0.922-12.387,4.616c-5.641,3.19-11.215,6.517-16.984,9.459
		c-28.272,14.418-57.138,27.598-86.38,39.886c-12.786,5.372-25.174,1.511-36.633-5.286c-4.712-2.795-9.146-6.058-13.82-8.922
		c-5.267-3.226-10.595-3.086-16.104-0.213c-9.563,4.987-19.995,0.378-22.714-10.031c-2.576-9.862-0.595-19.24,4.427-27.821
		c1.737-2.969,1.746-5.225,0.844-8.256c-4.303-14.46-5.924-29.306-5.776-44.359c0.015-1.48,0.37-2.957,0.566-4.436
		c6.287-4.193,12.589-8.173,20.775-6.204c4.336,1.043,7.094,3.389,8.009,7.828c1.246,6.047,1.784,12.171,2.143,18.319
		c0.167,2.864,0.247,5.936,3.337,7.266c2.921,1.257,5.073-0.979,7.136-2.513c14.829-11.026,30.057-21.584,44.249-33.384
		c14.143-11.758,42.304-7.634,49.069,16.159c1.406,4.943,2.244,10.055,3.216,15.112c1.863,9.695,7.384,16.141,16.749,19.326
		c10.324,3.513,20.825,4.605,31.423,1.691c10.719-2.946,14.988-8.807,14.945-19.76c-0.02-5.002-0.107-10.005,1.264-14.875
		c1.912-6.785,5.955-9.17,12.793-7.565c6.846,1.606,13.551,3.88,19.473,7.563c12.572,7.821,25.365,15.3,37.481,23.869
		c6.354,4.494,8.278,9.734,6.054,17.124c-5.495,18.253-13.717,35.168-26.445,49.317c-5.241,5.825-6.309,11.244-4.473,18.094
		c0.604,2.248,1.273,4.478,1.912,6.716c-18.097,15.917-39.146,26.15-62.45,31.65c-34.192,8.068-67.329,4.473-99.226-10.207
		c-2.478-1.141-4.34-1.246-6.895-0.086c-10.787,4.899-21.992,7.585-33.845,4.444c-6.74-1.785-11.935-5.651-14.894-12.162
		c3.047-2.843,4.065-2.698,6.908,0.979c9.555,8.307,20.479,7.908,31.53,4.378C132.91,331.899,145.335,324.617,158.87,319.914"/>
	<path fill-rule="evenodd" clip-rule="evenodd" fill="#5D7E36" d="M346.006,158.053c-3.81-1.956-4.907-4.617-4.301-9.184
		c2.635-19.864-3.951-38.033-11.315-55.969c-1.069-2.604-2.282-5.148-3.428-7.721c1.534-1.304,0.69-2.706,0.168-4.093
		c-5.626-14.945-9.973-30.308-14.821-45.507c-1.66-5.202-3.621-5.86-8.35-2.94c-6.813,4.207-11.194,10.837-16.447,16.595
		c-1.342,1.471-2.441,3.169-3.828,4.593c-2.365,2.429-3.604,7.376-7.271,6.818c-5.953-0.906-12.188-1.971-17.271-5.908
		c-2.53-1.96-2.183-3.59,0.067-5.59c5.012-4.453,10.845-7.684,16.372-11.371c1.496-0.998,3.022-1.951,5.097-3.286
		c-4.864-1.289-8.716-0.073-12.28,1.88c-5.979,3.273-11.784,6.862-17.707,10.239c-1.225,0.697-2.662,2.111-4.057,0.874
		c-1.225-1.088-0.646-2.808-0.174-4.241c4.01-12.175,20.229-29.19,38.305-31.373c12.868-1.554,25.148,0.157,37.406,3.401
		c7.079,1.873,12.982,5.992,18.324,10.816c14.031,12.675,25.75,27.343,36.528,42.816c2.284,3.278,2.229,4.494-2.231,5.23
		c-9.863,1.627-19.525,0.002-29.258-0.815c-1.822-0.152-3.648-0.242-5.473-0.361c-1.313-0.415-2.865-1.509-3.116,1.096
		c15.981,15.933,20.63,37.011,25.927,57.708c3.031,11.848,4.871,23.963,6.649,36.074c0.5,3.406-0.577,3.445-3.098,2.423
		C358.984,167.241,352.463,162.703,346.006,158.053z"/>
	<path fill-rule="evenodd" clip-rule="evenodd" fill="#A95284" d="M87.769,331.87c-2.134-1.516-4.35-2.453-6.908-0.977
		c-6.926-2.604-13.157-6.023-17.8-12.175c-4.53-6.001-5.587-12.591-5.172-19.759c0.119-2.054,0.85-2.438,2.768-2.096
		c5.426,0.97,10.567,0.186,15.302-2.852c2.281-1.463,4.74-1.452,7.117-0.144c2.47,1.359,5.088,2.548,7.308,4.248
		c8.72,6.678,18.202,11.582,29.851,13.127c-4.157,7.605-10.211,12.27-17.406,15.525c-3.765,1.704-7.727,3.072-11.952,3.298
		C89.54,330.139,88.132,330.109,87.769,331.87z"/>
	<path fill-rule="evenodd" clip-rule="evenodd" fill="#5C7E36" d="M270.926,71.865c-4.818,1.45-6.13,6.639-9.857,9.254
		c-3.439-2.24-5.227-5.852-7.516-9.048c-2.315-3.23-0.907-5.177,2.271-6.414c4.822-1.876,9.869-2.606,15.01-2.497
		c3.342,0.07,4.822,1.323,2.033,4.362C271.724,68.77,270.656,70.007,270.926,71.865z"/>
	<path fill-rule="evenodd" clip-rule="evenodd" fill="#304022" d="M336.944,74.053c-0.632-0.408-1.771-1.167-1.106-1.616
		c1.305-0.882,2.938-0.695,4.223,0.521C338.935,73.075,337.682,72.83,336.944,74.053z"/>
	<path fill-rule="evenodd" clip-rule="evenodd" fill="#E4E4E4" d="M325.195,139.935c-0.95,14.739-2.842,30.394-7.332,45.604
		c-2.365,8.014-4.342,8.729-11.092,3.753c-15.186-11.193-29.125-23.763-40.248-39.133c-6.545-9.044-8.125-18.95-4.793-29.807
		c5.334-17.37,14.229-32.11,29.318-42.784c8.199-5.799,11.986-5.236,16.505,3.663c7.546,14.862,13.753,30.233,16.886,46.717
		C325.131,131.591,325.024,135.229,325.195,139.935z"/>
	<path fill-rule="evenodd" clip-rule="evenodd" fill="#E4E4E4" d="M70.713,162.153c-2.655-21.212-7.583-40.703-11.187-60.439
		c-1.584-8.675-2.701-17.38-2.712-26.229c-0.004-3.178,0.771-3.585,3.657-2.415c15.685,6.356,28.923,16.354,40.907,27.977
		c7.736,7.501,7.999,17.363,1.002,25.546C92.265,138.424,81.694,149.868,70.713,162.153z"/>
	<path fill-rule="evenodd" clip-rule="evenodd" fill="#222C1C" d="M206.779,203.135c-7.979-0.003-14.316-4.862-14.293-10.96
		c0.021-5.711,6.417-10.604,14.065-10.759c0.332-0.007,0.666-0.007,0.998,0.011c6.633,0.366,15.354,6.434,15.427,10.729
		C223.055,196.78,213.678,203.137,206.779,203.135z"/>
	<path fill-rule="evenodd" clip-rule="evenodd" fill="#232C1C" d="M111.189,177.983c1.917-0.014,4.279,0.686,6.392,2.105
		c5.579,3.749,5.412,10.261-0.324,13.737c-6.141,3.722-15.525,1.563-19.54-4.397c-1.486-2.207-1.036-4.078,0.595-5.827
		C101.608,180.065,105.537,177.833,111.189,177.983z"/>
	<path fill-rule="evenodd" clip-rule="evenodd" fill="#222C1C" d="M57.529,255.224c0.01-13.762,4.7-18.306,17.675-17.66
		c6.176,0.308,12.202,1.45,17.796,4.317c6.409,3.285,8.544,7.857,6.485,14.813c-2.352,7.942-7.917,12.551-15.929,14.017
		c-2.555,0.467-4.805,0.816-6.446,3.098c-1.346,1.871-3.301,1.908-4.586,0.089c-1.921-2.72-4.609-4.353-7.4-5.75
		C59.358,265.262,56.64,260.885,57.529,255.224z"/>
</g>
</svg>
