<?xml version="1.0" encoding="utf-8"?>
<!-- Generator: Adobe Illustrator 16.0.0, SVG Export Plug-In . SVG Version: 6.00 Build 0)  -->
<!DOCTYPE svg PUBLIC "-//W3C//DTD SVG 1.1//EN" "http://www.w3.org/Graphics/SVG/1.1/DTD/svg11.dtd">
<svg version="1.1" id="Layer_1" xmlns="http://www.w3.org/2000/svg" xmlns:xlink="http://www.w3.org/1999/xlink" x="0px" y="0px"
	 width="380px" height="50px" viewBox="0 0 380 50" enable-background="new 0 0 380 50" xml:space="preserve">
<g>
	<g>
		<path fill="#FE943E" d="M75.264,7.453c0,0.588-0.209,1.093-0.63,1.513c-0.42,0.42-0.925,0.63-1.513,0.63h-0.252
			c-0.589,0-1.093-0.21-1.514-0.63c-0.42-0.419-0.63-0.924-0.63-1.513V7.285c0-0.588,0.21-1.093,0.63-1.514
			c0.421-0.42,0.925-0.63,1.514-0.63h0.252c0.588,0,1.093,0.209,1.513,0.63c0.421,0.421,0.63,0.925,0.63,1.514V7.453z
			 M71.608,14.304c0.363-0.365,0.819-0.547,1.365-0.547c0.547,0,1.002,0.183,1.366,0.547c0.363,0.364,0.547,0.826,0.547,1.386v18.03
			c0,0.533-0.184,0.982-0.547,1.346c-0.364,0.363-0.819,0.545-1.366,0.545c-0.546,0-1.002-0.182-1.365-0.545
			c-0.365-0.363-0.547-0.813-0.547-1.346V15.69C71.062,15.13,71.243,14.668,71.608,14.304z"/>
		<path fill="#222C1C" d="M73.121,5.142c0.588,0,1.093,0.209,1.513,0.63c0.421,0.421,0.63,0.925,0.63,1.514v0.168
			c0,0.588-0.209,1.093-0.63,1.513c-0.42,0.42-0.925,0.63-1.513,0.63h-0.252c-0.589,0-1.093-0.21-1.514-0.63
			c-0.42-0.419-0.63-0.924-0.63-1.513V7.285c0-0.588,0.21-1.093,0.63-1.514c0.421-0.42,0.925-0.63,1.514-0.63H73.121 M72.974,13.757
			c0.547,0,1.002,0.183,1.366,0.547c0.363,0.364,0.547,0.826,0.547,1.386v18.03c0,0.533-0.184,0.982-0.547,1.346
			c-0.364,0.363-0.819,0.545-1.366,0.545c-0.546,0-1.002-0.182-1.365-0.545c-0.365-0.363-0.547-0.813-0.547-1.346V15.69
			c0-0.561,0.182-1.022,0.547-1.386C71.972,13.939,72.428,13.757,72.974,13.757 M73.121,2.807h-0.252
			c-1.211,0-2.305,0.454-3.166,1.314c-0.858,0.858-1.313,1.953-1.313,3.164v0.168c0,1.21,0.454,2.305,1.314,3.165
			c0.502,0.501,1.083,0.865,1.72,1.081c-0.546,0.206-1.041,0.528-1.469,0.956c-0.804,0.802-1.229,1.854-1.229,3.037v18.03
			c0,1.156,0.425,2.195,1.231,3c0.803,0.803,1.847,1.227,3.015,1.227s2.211-0.424,3.016-1.229c0.806-0.807,1.232-1.844,1.232-2.998
			V15.69c0-1.182-0.426-2.232-1.229-3.037c-0.424-0.423-0.912-0.741-1.45-0.948c0.646-0.215,1.235-0.581,1.743-1.088
			c0.86-0.86,1.314-1.954,1.314-3.165V7.285c0-1.211-0.454-2.304-1.314-3.165C75.426,3.261,74.332,2.807,73.121,2.807L73.121,2.807z
			"/>
	</g>
	<g>
		<path fill="#FE943E" d="M92.159,32.25c1.569,0,3.067-0.393,4.497-1.178c0.504-0.279,0.952-0.42,1.345-0.42
			s0.742,0.182,1.051,0.547c0.308,0.365,0.462,0.799,0.462,1.303s-0.321,0.967-0.966,1.385c-1.989,1.291-4.231,1.934-6.725,1.934
			c-3.11,0-5.73-0.979-7.86-2.939c-2.241-2.074-3.361-4.807-3.361-8.197c0-3.389,1.12-6.121,3.361-8.195
			c2.13-1.96,4.75-2.942,7.86-2.942c1.681,0,3.062,0.218,4.141,0.652c1.077,0.435,1.938,0.861,2.584,1.282
			c0.645,0.42,0.966,0.882,0.966,1.387c0,0.504-0.154,0.939-0.462,1.303c-0.309,0.364-0.617,0.546-0.926,0.546
			c-0.477,0-0.966-0.14-1.47-0.42c-1.43-0.784-2.928-1.177-4.497-1.177c-2.466,0-4.37,0.694-5.715,2.081
			c-1.346,1.387-2.019,3.215-2.019,5.484c0,2.271,0.673,4.099,2.019,5.484C87.789,31.557,89.693,32.25,92.159,32.25z"/>
		<path fill="#222C1C" d="M91.823,13.546c1.681,0,3.062,0.218,4.141,0.652c1.077,0.435,1.938,0.861,2.584,1.282
			c0.645,0.42,0.966,0.882,0.966,1.387c0,0.504-0.154,0.939-0.462,1.303c-0.309,0.364-0.617,0.546-0.926,0.546
			c-0.477,0-0.966-0.14-1.47-0.42c-1.43-0.784-2.928-1.177-4.497-1.177c-2.466,0-4.37,0.694-5.715,2.081
			c-1.346,1.387-2.019,3.215-2.019,5.484c0,2.271,0.673,4.099,2.019,5.484c1.345,1.389,3.249,2.082,5.715,2.082
			c1.569,0,3.067-0.393,4.497-1.178c0.504-0.279,0.952-0.42,1.345-0.42s0.742,0.182,1.051,0.547
			c0.308,0.365,0.462,0.799,0.462,1.303s-0.321,0.967-0.966,1.385c-1.989,1.291-4.231,1.934-6.725,1.934
			c-3.11,0-5.73-0.979-7.86-2.939c-2.241-2.074-3.361-4.807-3.361-8.197c0-3.389,1.12-6.121,3.361-8.195
			C86.093,14.528,88.713,13.546,91.823,13.546 M91.823,11.212c-3.699,0-6.876,1.197-9.441,3.559
			c-2.732,2.528-4.115,5.862-4.115,9.913c0,4.052,1.383,7.386,4.111,9.91c2.568,2.365,5.743,3.563,9.445,3.563
			c2.939,0,5.63-0.775,7.993-2.307c1.681-1.098,2.032-2.424,2.032-3.348c0-1.053-0.35-2.023-1.013-2.809
			c-0.754-0.889-1.759-1.377-2.835-1.377c-0.802,0-1.612,0.234-2.479,0.715c-1.078,0.592-2.182,0.883-3.363,0.883
			c-1.824,0-3.146-0.447-4.04-1.371c-0.915-0.941-1.358-2.205-1.358-3.859c0-1.653,0.443-2.916,1.358-3.859
			c0.895-0.922,2.216-1.372,4.04-1.372c1.181,0,2.284,0.291,3.373,0.89c0.842,0.468,1.719,0.708,2.594,0.708
			c0.705,0,1.746-0.237,2.707-1.371c0.665-0.786,1.016-1.758,1.016-2.812c0-0.922-0.352-2.251-2.025-3.343
			c-0.779-0.508-1.755-0.995-2.987-1.492C95.461,11.48,93.822,11.212,91.823,11.212L91.823,11.212z"/>
	</g>
	<g>
		<path fill="#FE943E" d="M122.881,32.627c0.28,0.365,0.421,0.785,0.421,1.26c0,0.479-0.183,0.885-0.546,1.221
			c-0.365,0.336-0.771,0.504-1.219,0.504c-0.672,0-1.247-0.264-1.724-0.799l-7.229-9.834l-3.657,3.323v5.42
			c0,0.533-0.188,0.982-0.566,1.346s-0.835,0.545-1.366,0.545c-0.532,0-0.981-0.182-1.346-0.545s-0.545-0.813-0.545-1.346V6.444
			c0-0.532,0.181-0.987,0.545-1.365s0.813-0.567,1.346-0.567c0.531,0,0.987,0.189,1.366,0.567s0.566,0.833,0.566,1.365v17.19
			l10.004-9.246c0.448-0.364,0.951-0.546,1.512-0.546c0.562,0,0.968,0.204,1.22,0.61c0.252,0.406,0.378,0.75,0.378,1.029
			c0,0.616-0.237,1.163-0.714,1.639l-6.053,5.422L122.881,32.627z"/>
		<path fill="#222C1C" d="M106.995,4.511c0.531,0,0.987,0.189,1.366,0.567s0.566,0.833,0.566,1.365v17.19l10.004-9.246
			c0.448-0.364,0.951-0.546,1.512-0.546c0.562,0,0.968,0.204,1.22,0.61c0.252,0.406,0.378,0.75,0.378,1.029
			c0,0.616-0.237,1.163-0.714,1.639l-6.053,5.422l7.606,10.086c0.28,0.365,0.421,0.785,0.421,1.26c0,0.479-0.183,0.885-0.546,1.221
			c-0.365,0.336-0.771,0.504-1.219,0.504c-0.672,0-1.247-0.264-1.724-0.799l-7.229-9.834l-3.657,3.323v5.42
			c0,0.533-0.188,0.982-0.566,1.346s-0.835,0.545-1.366,0.545c-0.532,0-0.981-0.182-1.346-0.545s-0.545-0.813-0.545-1.346V6.444
			c0-0.532,0.181-0.987,0.545-1.365S106.463,4.511,106.995,4.511 M106.995,2.176c-1.173,0-2.219,0.443-3.028,1.283
			c-0.783,0.813-1.197,1.846-1.197,2.984v27.277c0,1.158,0.425,2.195,1.232,3c0.803,0.803,1.838,1.227,2.993,1.227
			c1.138,0,2.17-0.416,2.984-1.199c0.839-0.807,1.284-1.855,1.284-3.027v-4.387l0.974-0.887l5.695,7.748l0.066,0.092l0.074,0.084
			c0.923,1.031,2.121,1.576,3.464,1.576c1.037,0,2.006-0.391,2.802-1.123c0.85-0.787,1.299-1.801,1.299-2.938
			c0-0.984-0.313-1.912-0.905-2.682l-6.302-8.356l4.453-3.99l0.05-0.043l0.045-0.044c0.915-0.915,1.397-2.053,1.397-3.291
			c0-0.731-0.238-1.471-0.73-2.262c-0.674-1.088-1.842-1.711-3.202-1.711c-1.091,0-2.122,0.37-2.983,1.068l-0.058,0.047
			l-0.057,0.051l-6.082,5.622V6.444c0-1.155-0.433-2.198-1.252-3.017C109.192,2.609,108.15,2.176,106.995,2.176L106.995,2.176z"/>
	</g>
	<g>
		<path fill="#FE943E" d="M152.722,5.646c4.426,0,7.984,1.415,10.675,4.244c2.605,2.775,3.963,6.389,4.076,10.844
			c-0.113,4.455-1.471,8.069-4.076,10.844c-2.69,2.828-6.249,4.242-10.675,4.242c-4.456,0-8.015-1.414-10.676-4.242
			c-2.663-2.803-4.021-6.417-4.076-10.844c0.056-4.427,1.413-8.041,4.076-10.844C144.707,7.062,148.266,5.646,152.722,5.646z
			 M152.722,32.25c3.417,0,6.106-1.107,8.068-3.32c1.905-2.129,2.858-4.861,2.858-8.196s-0.953-6.066-2.858-8.196
			c-1.962-2.212-4.651-3.32-8.068-3.32c-3.42,0-6.109,1.108-8.07,3.32c-1.905,2.13-2.857,4.861-2.857,8.196s0.952,6.067,2.857,8.196
			C146.612,31.143,149.302,32.25,152.722,32.25z"/>
		<path fill="#222C1C" d="M152.722,5.646c4.426,0,7.984,1.415,10.675,4.244c2.605,2.775,3.963,6.389,4.076,10.844
			c-0.113,4.455-1.471,8.069-4.076,10.844c-2.69,2.828-6.249,4.242-10.675,4.242c-4.456,0-8.015-1.414-10.676-4.242
			c-2.663-2.803-4.021-6.417-4.076-10.844c0.056-4.427,1.413-8.041,4.076-10.844C144.707,7.062,148.266,5.646,152.722,5.646
			 M152.722,32.25c3.417,0,6.106-1.107,8.068-3.32c1.905-2.129,2.858-4.861,2.858-8.196s-0.953-6.066-2.858-8.196
			c-1.962-2.212-4.651-3.32-8.068-3.32c-3.42,0-6.109,1.108-8.07,3.32c-1.905,2.13-2.857,4.861-2.857,8.196s0.952,6.067,2.857,8.196
			C146.612,31.143,149.302,32.25,152.722,32.25 M152.722,3.311c-5.104,0-9.269,1.676-12.377,4.98
			c-3.06,3.22-4.647,7.399-4.71,12.414l-0.001,0.029l0.001,0.029c0.063,5.014,1.65,9.194,4.719,12.422
			c3.099,3.297,7.263,4.971,12.368,4.971c5.071,0,9.231-1.672,12.366-4.971c3.008-3.201,4.592-7.366,4.72-12.393v-0.059v-0.059
			c-0.128-5.026-1.712-9.192-4.71-12.384C161.953,4.983,157.792,3.311,152.722,3.311L152.722,3.311z M152.722,29.914
			c-2.744,0-4.813-0.828-6.322-2.531c-1.531-1.712-2.271-3.883-2.271-6.649c0-2.765,0.739-4.937,2.263-6.639
			c1.519-1.714,3.587-2.542,6.33-2.542c2.741,0,4.81,0.828,6.321,2.534c1.53,1.71,2.271,3.882,2.271,6.646
			c0,2.766-0.74,4.937-2.264,6.639C157.531,29.086,155.464,29.914,152.722,29.914L152.722,29.914z"/>
	</g>
	<g>
		<path fill="#FE943E" d="M176.887,17.498c1.962-2.634,4.161-3.952,6.599-3.952h0.209c0.533,0,0.974,0.183,1.325,0.546
			c0.35,0.365,0.525,0.82,0.525,1.366c0,0.547-0.184,0.981-0.548,1.304c-0.364,0.321-0.825,0.484-1.386,0.484h-0.21
			c-1.402,0-2.656,0.342-3.761,1.029c-1.108,0.687-2.025,1.577-2.754,2.668v12.777c0,0.533-0.189,0.982-0.567,1.346
			c-0.379,0.363-0.835,0.545-1.365,0.545c-0.533,0-0.981-0.182-1.346-0.545s-0.547-0.813-0.547-1.346V15.69
			c0-0.532,0.183-0.988,0.547-1.366c0.364-0.378,0.813-0.567,1.346-0.567c0.53,0,0.986,0.189,1.365,0.567
			c0.378,0.378,0.567,0.834,0.567,1.366V17.498z"/>
		<path fill="#222C1C" d="M183.694,13.546c0.533,0,0.974,0.183,1.325,0.546c0.35,0.365,0.525,0.82,0.525,1.366
			c0,0.547-0.184,0.981-0.548,1.304c-0.364,0.321-0.825,0.484-1.386,0.484h-0.21c-1.402,0-2.656,0.342-3.761,1.029
			c-1.108,0.687-2.025,1.577-2.754,2.668v12.777c0,0.533-0.189,0.982-0.567,1.346c-0.379,0.363-0.835,0.545-1.365,0.545
			c-0.533,0-0.981-0.182-1.346-0.545s-0.547-0.813-0.547-1.346V15.69c0-0.532,0.183-0.988,0.547-1.366
			c0.364-0.378,0.813-0.567,1.346-0.567c0.53,0,0.986,0.189,1.365,0.567c0.378,0.378,0.567,0.834,0.567,1.366v1.808
			c1.962-2.634,4.161-3.952,6.599-3.952H183.694 M183.694,11.212h-0.209c-1.891,0-3.657,0.573-5.286,1.708
			c-0.072-0.085-0.149-0.168-0.229-0.248c-0.818-0.818-1.861-1.251-3.016-1.251c-1.174,0-2.221,0.443-3.028,1.283
			c-0.784,0.814-1.198,1.847-1.198,2.985v18.03c0,1.156,0.426,2.193,1.23,2.998s1.84,1.229,2.996,1.229
			c1.136,0,2.169-0.416,2.983-1.199c0.84-0.807,1.285-1.855,1.285-3.027V21.707c0.465-0.574,1.009-1.05,1.647-1.446
			c0.736-0.458,1.564-0.679,2.531-0.679h0.21c1.127,0,2.142-0.37,2.933-1.069c0.861-0.763,1.335-1.847,1.335-3.053
			c0-1.15-0.406-2.183-1.176-2.983C185.904,11.647,184.865,11.212,183.694,11.212L183.694,11.212z"/>
	</g>
	<g>
		<path fill="#FE943E" d="M192.019,15.06c2.351-1.009,4.788-1.514,7.31-1.514c2.859,0,5.071,0.87,6.643,2.606
			c1.4,1.513,2.101,3.405,2.101,5.674v11.894c0,0.533-0.19,0.982-0.566,1.346c-0.377,0.363-0.834,0.545-1.368,0.545
			c-0.532,0-0.979-0.182-1.344-0.545s-0.549-0.813-0.549-1.346v-1.094c-0.755,0.785-1.77,1.516-3.044,2.186
			c-1.276,0.674-2.895,1.008-4.854,1.008c-1.935,0-3.543-0.559-4.832-1.678c-1.346-1.178-2.019-2.719-2.019-4.627
			c0-2.07,0.785-3.696,2.353-4.873c1.71-1.29,4.147-1.934,7.314-1.934h5.082v-0.336c0-1.877-0.459-3.215-1.384-4.014
			c-0.925-0.799-2.342-1.198-4.245-1.198c-1.626,0-3.487,0.336-5.59,1.009c-0.223,0.056-0.477,0.083-0.757,0.083
			s-0.574-0.147-0.883-0.441s-0.462-0.75-0.462-1.367C190.924,15.831,191.289,15.369,192.019,15.06z M193.32,29.1
			c0,2.24,1.484,3.359,4.454,3.359c1.317,0,2.543-0.32,3.679-0.965c1.135-0.646,2.063-1.373,2.791-2.188v-3.53h-4.578
			c-1.991,0-3.543,0.252-4.664,0.756C193.88,27.039,193.32,27.893,193.32,29.1z"/>
		<path fill="#222C1C" d="M199.328,13.546c2.859,0,5.071,0.87,6.643,2.606c1.4,1.513,2.101,3.405,2.101,5.674v11.894
			c0,0.533-0.19,0.982-0.566,1.346c-0.377,0.363-0.834,0.545-1.368,0.545c-0.532,0-0.979-0.182-1.344-0.545
			s-0.549-0.813-0.549-1.346v-1.094c-0.755,0.785-1.77,1.516-3.044,2.186c-1.276,0.674-2.895,1.008-4.854,1.008
			c-1.935,0-3.543-0.559-4.832-1.678c-1.346-1.178-2.019-2.719-2.019-4.627c0-2.07,0.785-3.696,2.353-4.873
			c1.71-1.29,4.147-1.934,7.314-1.934h5.082v-0.336c0-1.877-0.459-3.215-1.384-4.014c-0.925-0.799-2.342-1.198-4.245-1.198
			c-1.626,0-3.487,0.336-5.59,1.009c-0.223,0.056-0.477,0.083-0.757,0.083s-0.574-0.147-0.883-0.441s-0.462-0.75-0.462-1.367
			c0-0.615,0.365-1.078,1.095-1.386C194.369,14.051,196.807,13.546,199.328,13.546 M197.774,32.459c1.317,0,2.543-0.32,3.679-0.965
			c1.135-0.646,2.063-1.373,2.791-2.188v-3.53h-4.578c-1.991,0-3.543,0.252-4.664,0.756c-1.122,0.506-1.682,1.359-1.682,2.566
			C193.32,31.34,194.805,32.459,197.774,32.459 M199.328,11.212c-2.827,0-5.597,0.573-8.231,1.702
			c-1.59,0.673-2.508,1.962-2.508,3.532c0,1.592,0.646,2.542,1.188,3.058c0.937,0.896,1.873,1.085,2.491,1.085
			c0.474,0,0.918-0.052,1.325-0.154l0.073-0.018l0.071-0.022c1.86-0.596,3.502-0.898,4.877-0.898c1.283,0,2.249,0.225,2.719,0.63
			c0.073,0.063,0.141,0.146,0.201,0.248h-2.373c-3.672,0-6.604,0.81-8.72,2.405c-2.146,1.608-3.283,3.94-3.283,6.737
			c0,2.566,0.976,4.771,2.815,6.383c1.724,1.5,3.864,2.258,6.371,2.258c2.335,0,4.334-0.432,5.942-1.277
			c0.227-0.119,0.448-0.242,0.664-0.365c0.062,0.068,0.126,0.139,0.193,0.207c0.801,0.803,1.838,1.227,2.991,1.227
			c1.14,0,2.172-0.416,2.987-1.199c0.836-0.807,1.28-1.855,1.28-3.027V21.827c0-2.866-0.914-5.308-2.721-7.259
			C205.678,12.348,202.86,11.212,199.328,11.212L199.328,11.212z M197.774,30.125c-2.119,0-2.119-0.547-2.119-1.025
			c0-0.266,0-0.301,0.303-0.436c0.56-0.252,1.655-0.553,3.708-0.553h2.246v0.223c-0.458,0.402-0.997,0.777-1.613,1.129
			C199.515,29.908,198.69,30.125,197.774,30.125L197.774,30.125z"/>
	</g>
	<g>
		<path fill="#FE943E" d="M224.461,17.078c-2.465,0-4.763,1.344-6.892,4.034v12.609c0,0.533-0.188,0.982-0.568,1.346
			c-0.376,0.363-0.832,0.545-1.365,0.545c-0.532,0-0.98-0.182-1.344-0.545c-0.366-0.363-0.547-0.813-0.547-1.346V15.69
			c0-0.561,0.181-1.022,0.547-1.386c0.363-0.365,0.812-0.547,1.344-0.547c0.533,0,0.989,0.183,1.365,0.547
			c0.381,0.364,0.568,0.826,0.568,1.386v1.723c1.121-1.177,2.087-2.003,2.9-2.48c1.598-0.924,3.115-1.387,4.56-1.387
			c1.443,0,2.626,0.218,3.551,0.652c0.926,0.435,1.71,1.03,2.354,1.786c1.318,1.541,1.977,3.475,1.977,5.8v11.936
			c0,0.533-0.188,0.982-0.568,1.346c-0.379,0.363-0.832,0.545-1.366,0.545c-0.532,0-0.981-0.182-1.344-0.545
			c-0.364-0.363-0.545-0.813-0.545-1.346V22.205c0-1.597-0.36-2.851-1.073-3.761C227.299,17.534,226.116,17.078,224.461,17.078z"/>
		<path fill="#222C1C" d="M225.029,13.546c1.443,0,2.626,0.218,3.551,0.652c0.926,0.435,1.71,1.03,2.354,1.786
			c1.318,1.541,1.977,3.475,1.977,5.8v11.936c0,0.533-0.188,0.982-0.568,1.346c-0.379,0.363-0.832,0.545-1.366,0.545
			c-0.532,0-0.981-0.182-1.344-0.545c-0.364-0.363-0.545-0.813-0.545-1.346V22.205c0-1.597-0.36-2.851-1.073-3.761
			c-0.715-0.91-1.897-1.365-3.553-1.365c-2.465,0-4.763,1.344-6.892,4.034v12.609c0,0.533-0.188,0.982-0.568,1.346
			c-0.376,0.363-0.832,0.545-1.365,0.545c-0.532,0-0.98-0.182-1.344-0.545c-0.366-0.363-0.547-0.813-0.547-1.346V15.69
			c0-0.561,0.181-1.022,0.547-1.386c0.363-0.365,0.812-0.547,1.344-0.547c0.533,0,0.989,0.183,1.365,0.547
			c0.381,0.364,0.568,0.826,0.568,1.386v1.723c1.121-1.177,2.087-2.003,2.9-2.48C222.067,14.009,223.585,13.546,225.029,13.546
			 M225.029,11.212c-1.85,0-3.779,0.572-5.729,1.7c-0.088,0.053-0.178,0.107-0.27,0.165c-0.124-0.16-0.261-0.312-0.409-0.456
			c-0.812-0.784-1.847-1.199-2.985-1.199c-1.156,0-2.192,0.426-2.997,1.231c-0.801,0.802-1.227,1.853-1.227,3.037v18.03
			c0,1.158,0.426,2.195,1.23,3c0.803,0.803,1.839,1.227,2.993,1.227c1.139,0,2.172-0.416,2.985-1.199
			c0.839-0.807,1.285-1.855,1.285-3.027V21.957c1.503-1.71,3.001-2.544,4.555-2.544c0.503,0,1.396,0.062,1.715,0.473
			c0.383,0.485,0.574,1.265,0.574,2.319v11.516c0,1.158,0.427,2.195,1.232,3c0.803,0.803,1.84,1.227,2.993,1.227
			c1.138,0,2.169-0.416,2.984-1.197c0.839-0.807,1.285-1.855,1.285-3.029V21.785c0-2.887-0.854-5.349-2.534-7.316
			c-0.859-1.007-1.916-1.809-3.138-2.383C228.321,11.498,226.833,11.212,225.029,11.212L225.029,11.212z"/>
	</g>
	<g>
		<path fill="#FE943E" d="M255.982,16.741V15.69c0-0.532,0.184-0.988,0.547-1.366c0.364-0.378,0.812-0.567,1.344-0.567
			c0.534,0,0.989,0.189,1.366,0.567c0.378,0.378,0.568,0.834,0.568,1.366v18.786c0,3.561-0.857,6.283-2.563,8.174
			c-1.711,1.891-4.146,2.838-7.315,2.838c-3.36,0-6.36-0.729-8.992-2.184c-0.504-0.313-0.757-0.738-0.757-1.285
			c0-0.545,0.163-1.002,0.484-1.365c0.32-0.363,0.658-0.545,1.01-0.545c0.349,0,0.665,0.053,0.945,0.166
			c2.126,1.064,4.439,1.6,6.934,1.6c4.287,0,6.43-2.287,6.43-6.852v-2.816c-1.991,2.129-4.386,3.195-7.186,3.195
			c-2.662,0-4.945-0.896-6.853-2.691c-2.213-2.043-3.318-4.789-3.318-8.237c0-3.446,1.105-6.191,3.318-8.238
			c1.907-1.792,4.226-2.69,6.959-2.69C251.633,13.546,253.991,14.612,255.982,16.741z M255.982,20.146
			c-0.786-0.813-1.68-1.534-2.688-2.165c-1.009-0.63-2.132-0.945-3.366-0.945c-1.232,0-2.281,0.154-3.15,0.462
			c-0.87,0.309-1.623,0.756-2.267,1.345c-1.377,1.289-2.063,3.166-2.063,5.631c0,3.614,1.444,5.94,4.329,6.979
			c0.869,0.307,1.918,0.459,3.15,0.459c2.048,0,4.063-1.033,6.054-3.109V20.146z"/>
		<path fill="#222C1C" d="M248.903,13.546c2.729,0,5.088,1.066,7.079,3.195V15.69c0-0.532,0.184-0.988,0.547-1.366
			c0.364-0.378,0.812-0.567,1.344-0.567c0.534,0,0.989,0.189,1.366,0.567c0.378,0.378,0.568,0.834,0.568,1.366v18.786
			c0,3.561-0.857,6.283-2.563,8.174c-1.711,1.891-4.146,2.838-7.315,2.838c-3.36,0-6.36-0.729-8.992-2.184
			c-0.504-0.313-0.757-0.738-0.757-1.285c0-0.545,0.163-1.002,0.484-1.365c0.32-0.363,0.658-0.545,1.01-0.545
			c0.349,0,0.665,0.053,0.945,0.166c2.126,1.064,4.439,1.6,6.934,1.6c4.287,0,6.43-2.287,6.43-6.852v-2.816
			c-1.991,2.129-4.386,3.195-7.186,3.195c-2.662,0-4.945-0.896-6.853-2.691c-2.213-2.043-3.318-4.789-3.318-8.237
			c0-3.446,1.105-6.191,3.318-8.238C243.852,14.444,246.17,13.546,248.903,13.546 M249.929,31.912c2.048,0,4.063-1.033,6.054-3.109
			v-8.657c-0.786-0.813-1.68-1.534-2.688-2.165c-1.009-0.63-2.132-0.945-3.366-0.945c-1.232,0-2.281,0.154-3.15,0.462
			c-0.87,0.309-1.623,0.756-2.267,1.345c-1.377,1.289-2.063,3.166-2.063,5.631c0,3.614,1.444,5.94,4.329,6.979
			C247.647,31.76,248.696,31.912,249.929,31.912 M248.903,11.212c-3.337,0-6.213,1.118-8.557,3.324
			c-2.688,2.482-4.056,5.831-4.056,9.938c0,4.112,1.369,7.459,4.07,9.954c2.327,2.191,5.17,3.309,8.436,3.309
			c1.679,0,3.247-0.311,4.697-0.93c-0.455,2.23-1.878,2.732-3.941,2.732c-2.116,0-4.1-0.453-5.89-1.352l-0.088-0.041l-0.09-0.037
			c-0.556-0.221-1.166-0.336-1.812-0.336c-0.723,0-1.786,0.234-2.761,1.336c-0.699,0.789-1.068,1.793-1.068,2.91
			c0,1.352,0.683,2.547,1.871,3.273l0.045,0.029l0.046,0.023c2.972,1.645,6.378,2.479,10.122,2.479c3.842,0,6.884-1.215,9.047-3.607
			c2.102-2.326,3.165-5.604,3.165-9.74V15.69c0-1.153-0.43-2.196-1.249-3.015c-0.82-0.821-1.864-1.253-3.019-1.253
			c-1.17,0-2.22,0.443-3.025,1.283c-0.024,0.025-0.05,0.05-0.073,0.075C253.003,11.738,251.037,11.212,248.903,11.212
			L248.903,11.212z M246.095,20.556c0.415-0.374,0.893-0.655,1.465-0.857c0.612-0.217,1.411-0.329,2.369-0.329
			c0.796,0,1.492,0.194,2.127,0.591c0.572,0.358,1.105,0.754,1.592,1.183v6.675c-1.29,1.17-2.539,1.76-3.719,1.76
			c-0.96,0-1.759-0.109-2.369-0.328c-1.287-0.461-2.775-1.426-2.775-4.776C244.784,22.674,245.212,21.392,246.095,20.556
			L246.095,20.556z"/>
	</g>
	<g>
		<path fill="#FE943E" d="M271.198,30.568c1.203,1.121,2.884,1.682,5.041,1.682c2.16,0,3.966-0.365,5.424-1.094
			c0.504-0.25,0.936-0.379,1.302-0.379c0.365,0,0.715,0.156,1.049,0.465c0.339,0.307,0.507,0.656,0.507,1.049
			c0,0.73-0.302,1.254-0.905,1.576c-0.602,0.324-1.143,0.596-1.618,0.822c-0.477,0.223-0.992,0.418-1.554,0.586
			c-1.262,0.363-2.717,0.545-4.37,0.545c-3.448,0-6.125-0.965-8.028-2.9c-1.905-1.932-2.856-4.676-2.856-8.236
			c0-3.082,0.798-5.645,2.394-7.691c1.794-2.297,4.345-3.446,7.648-3.446c3.138,0,5.618,1.066,7.439,3.195
			c1.71,1.99,2.563,4.455,2.563,7.396c0,0.533-0.176,0.982-0.524,1.345c-0.352,0.365-0.819,0.546-1.408,0.546h-14.247
			C269.277,27.936,269.99,29.449,271.198,30.568z M275.23,16.783c-2.494,0-4.315,1.108-5.464,3.321
			c-0.42,0.785-0.658,1.723-0.713,2.815h12.398c-0.111-1.989-0.843-3.559-2.185-4.708C278.146,17.261,276.799,16.783,275.23,16.783z
			"/>
		<path fill="#222C1C" d="M275.23,13.546c3.138,0,5.618,1.066,7.439,3.195c1.71,1.99,2.563,4.455,2.563,7.396
			c0,0.533-0.176,0.982-0.524,1.345c-0.352,0.365-0.819,0.546-1.408,0.546h-14.247c0.224,1.906,0.937,3.42,2.145,4.539
			c1.203,1.121,2.884,1.682,5.041,1.682c2.16,0,3.966-0.365,5.424-1.094c0.504-0.25,0.936-0.379,1.302-0.379
			c0.365,0,0.715,0.156,1.049,0.465c0.339,0.307,0.507,0.656,0.507,1.049c0,0.73-0.302,1.254-0.905,1.576
			c-0.602,0.324-1.143,0.596-1.618,0.822c-0.477,0.223-0.992,0.418-1.554,0.586c-1.262,0.363-2.717,0.545-4.37,0.545
			c-3.448,0-6.125-0.965-8.028-2.9c-1.905-1.932-2.856-4.676-2.856-8.236c0-3.082,0.798-5.645,2.394-7.691
			C269.376,14.696,271.927,13.546,275.23,13.546 M269.054,22.919h12.398c-0.111-1.989-0.843-3.559-2.185-4.708
			c-1.121-0.951-2.469-1.429-4.037-1.429c-2.494,0-4.315,1.108-5.464,3.321C269.347,20.889,269.108,21.827,269.054,22.919
			 M275.23,11.212c-4.046,0-7.238,1.461-9.487,4.345c-1.918,2.456-2.891,5.527-2.891,9.127c0,4.177,1.187,7.5,3.528,9.876
			c2.352,2.387,5.611,3.596,9.692,3.596c1.863,0,3.549-0.213,5.016-0.635c0.694-0.211,1.327-0.451,1.905-0.723
			c0.512-0.24,1.093-0.535,1.726-0.875c1.354-0.721,2.134-2.047,2.134-3.633c0-1.039-0.448-2.023-1.26-2.771
			c-0.971-0.891-1.966-1.074-2.629-1.074c-0.737,0-1.503,0.201-2.345,0.623c-1.124,0.563-2.598,0.846-4.381,0.846
			c-1.56,0-2.688-0.346-3.451-1.057c-0.165-0.152-0.314-0.316-0.452-0.494h10.965c1.228,0,2.297-0.434,3.09-1.262
			c0.771-0.801,1.18-1.826,1.18-2.964c0-3.501-1.054-6.502-3.128-8.918C282.167,12.561,279.066,11.212,275.23,11.212L275.23,11.212z
			 M272.197,20.585c0.713-1.021,1.65-1.467,3.033-1.467c1.022,0,1.821,0.277,2.523,0.874c0.214,0.181,0.4,0.378,0.561,0.593H272.197
			L272.197,20.585z"/>
	</g>
	<g>
		<path fill="#FE943E" d="M305.911,9.639v9.288h12.945c0.504,0,0.931,0.175,1.281,0.525c0.352,0.35,0.524,0.777,0.524,1.282
			s-0.173,0.924-0.524,1.261c-0.351,0.336-0.777,0.505-1.281,0.505h-12.945v11.221c0,0.533-0.19,0.982-0.567,1.346
			c-0.378,0.363-0.835,0.545-1.367,0.545s-0.979-0.182-1.344-0.545c-0.364-0.363-0.545-0.813-0.545-1.346V8
			c0-0.532,0.181-0.988,0.545-1.366c0.365-0.378,0.812-0.567,1.344-0.567h16.352c0.503,0,0.931,0.175,1.281,0.524
			c0.35,0.352,0.525,0.778,0.525,1.282c0,0.505-0.176,0.925-0.525,1.261c-0.351,0.337-0.778,0.505-1.281,0.505H305.911z"/>
		<path fill="#222C1C" d="M320.328,6.066c0.503,0,0.931,0.175,1.281,0.524c0.35,0.352,0.525,0.778,0.525,1.282
			c0,0.505-0.176,0.925-0.525,1.261c-0.351,0.337-0.778,0.505-1.281,0.505h-14.417v9.288h12.945c0.504,0,0.931,0.175,1.281,0.525
			c0.352,0.35,0.524,0.777,0.524,1.282s-0.173,0.924-0.524,1.261c-0.351,0.336-0.777,0.505-1.281,0.505h-12.945v11.221
			c0,0.533-0.19,0.982-0.567,1.346c-0.378,0.363-0.835,0.545-1.367,0.545s-0.979-0.182-1.344-0.545
			c-0.364-0.363-0.545-0.813-0.545-1.346V8c0-0.532,0.181-0.988,0.545-1.366c0.365-0.378,0.812-0.567,1.344-0.567H320.328
			 M320.328,3.731h-16.352c-1.17,0-2.218,0.443-3.026,1.283c-0.782,0.813-1.197,1.846-1.197,2.985v25.721
			c0,1.158,0.428,2.195,1.232,3c0.803,0.803,1.839,1.227,2.991,1.227c1.138,0,2.17-0.416,2.985-1.197
			c0.842-0.811,1.284-1.859,1.284-3.029v-8.887h10.61c1.107,0,2.109-0.398,2.896-1.153c0.815-0.782,1.243-1.801,1.243-2.947
			c0-1.127-0.414-2.141-1.204-2.932c-0.794-0.793-1.809-1.21-2.935-1.21h-10.61v-4.619h12.082c1.106,0,2.106-0.398,2.896-1.153
			c0.816-0.783,1.247-1.802,1.247-2.947c0-1.125-0.418-2.138-1.208-2.93C322.466,4.148,321.452,3.731,320.328,3.731L320.328,3.731z"
			/>
	</g>
	<g>
		<path fill="#FE943E" d="M336.424,13.546c3.25,0,5.854,1.024,7.817,3.069c1.961,2.074,2.942,4.763,2.942,8.069
			c0,3.306-0.981,5.996-2.942,8.07c-1.963,2.047-4.567,3.066-7.817,3.066c-3.278,0-5.884-1.02-7.818-3.066
			c-1.96-2.045-2.942-4.736-2.942-8.07s0.982-6.023,2.942-8.069C330.54,14.57,333.146,13.546,336.424,13.546z M331.737,30.592
			c0.658,0.602,1.4,1.041,2.225,1.32c0.829,0.281,1.641,0.422,2.439,0.422c0.801,0,1.611-0.141,2.439-0.422
			c0.826-0.279,1.576-0.713,2.249-1.303c1.51-1.371,2.267-3.361,2.267-5.966c0-2.522-0.757-4.482-2.267-5.884
			c-1.26-1.148-2.818-1.723-4.666-1.723c-3.026,0-5.129,1.36-6.305,4.076c-0.421,0.981-0.631,2.164-0.631,3.552
			c0,1.387,0.21,2.571,0.631,3.551S331.079,29.988,331.737,30.592z"/>
		<path fill="#222C1C" d="M336.424,13.546c3.25,0,5.854,1.024,7.817,3.069c1.961,2.074,2.942,4.763,2.942,8.069
			c0,3.306-0.981,5.996-2.942,8.07c-1.963,2.047-4.567,3.066-7.817,3.066c-3.278,0-5.884-1.02-7.818-3.066
			c-1.96-2.045-2.942-4.736-2.942-8.07s0.982-6.023,2.942-8.069C330.54,14.57,333.146,13.546,336.424,13.546 M336.401,32.334
			c0.801,0,1.611-0.141,2.439-0.422c0.826-0.279,1.576-0.713,2.249-1.303c1.51-1.371,2.267-3.361,2.267-5.966
			c0-2.522-0.757-4.482-2.267-5.884c-1.26-1.148-2.818-1.723-4.666-1.723c-3.026,0-5.129,1.36-6.305,4.076
			c-0.421,0.981-0.631,2.164-0.631,3.552c0,1.387,0.21,2.571,0.631,3.551s0.96,1.773,1.618,2.377c0.658,0.602,1.4,1.041,2.225,1.32
			C334.791,32.193,335.603,32.334,336.401,32.334 M336.424,11.212c-3.93,0-7.131,1.278-9.514,3.799
			c-2.373,2.473-3.582,5.731-3.582,9.672c0,3.943,1.209,7.199,3.593,9.687c2.372,2.508,5.571,3.785,9.503,3.785
			c3.894,0,7.092-1.273,9.502-3.785c2.388-2.523,3.591-5.779,3.591-9.687c0-3.907-1.203-7.161-3.58-9.672
			C343.516,12.486,340.317,11.212,336.424,11.212L336.424,11.212z M336.401,29.998c-0.537,0-1.106-0.1-1.688-0.295
			c-0.523-0.178-0.979-0.449-1.398-0.834c-0.412-0.375-0.765-0.904-1.052-1.574c-0.292-0.684-0.44-1.57-0.44-2.631
			c0-1.06,0.148-1.947,0.442-2.634c0.805-1.861,2.052-2.66,4.158-2.66c1.275,0,2.26,0.354,3.093,1.115
			c1.008,0.935,1.505,2.299,1.505,4.159c0,1.923-0.488,3.306-1.486,4.224c-0.442,0.381-0.914,0.654-1.444,0.836
			C337.502,29.902,336.95,29.998,336.401,29.998L336.401,29.998z"/>
	</g>
	<g>
		<path fill="#FE943E" d="M369.373,32.459c0.308,0.367,0.463,0.777,0.463,1.24s-0.163,0.898-0.485,1.303
			c-0.321,0.406-0.799,0.609-1.428,0.609c-0.631,0-1.128-0.252-1.493-0.756l-5.968-7.145l-5.63,7.061
			c-0.423,0.561-0.942,0.84-1.555,0.84c-0.616,0-1.088-0.176-1.409-0.523c-0.322-0.352-0.484-0.777-0.484-1.285
			c0-0.502,0.141-0.938,0.42-1.301l6.517-7.692l-6.517-7.942c-0.307-0.393-0.461-0.841-0.461-1.345c0-0.506,0.182-0.925,0.547-1.261
			c0.364-0.337,0.849-0.505,1.45-0.505s1.069,0.238,1.408,0.714l5.882,7.272l5.842-7.272c0.338-0.476,0.806-0.714,1.409-0.714
			c0.602,0,1.086,0.176,1.45,0.526c0.363,0.351,0.545,0.756,0.545,1.219s-0.141,0.876-0.419,1.24l-6.641,7.817L369.373,32.459z"/>
		<path fill="#222C1C" d="M367.881,13.757c0.602,0,1.086,0.176,1.45,0.526c0.363,0.351,0.545,0.756,0.545,1.219
			s-0.141,0.876-0.419,1.24l-6.641,7.817l6.557,7.901c0.308,0.367,0.463,0.777,0.463,1.24s-0.163,0.898-0.485,1.303
			c-0.321,0.406-0.799,0.609-1.428,0.609c-0.631,0-1.128-0.252-1.493-0.756l-5.968-7.145l-5.63,7.061
			c-0.423,0.561-0.942,0.84-1.555,0.84c-0.616,0-1.088-0.176-1.409-0.523c-0.322-0.352-0.484-0.777-0.484-1.285
			c0-0.502,0.141-0.938,0.42-1.301l6.517-7.692l-6.517-7.942c-0.307-0.393-0.461-0.841-0.461-1.345c0-0.506,0.182-0.925,0.547-1.261
			c0.364-0.337,0.849-0.505,1.45-0.505s1.069,0.238,1.408,0.714l5.882,7.272l5.842-7.272
			C366.81,13.995,367.277,13.757,367.881,13.757 M367.881,11.422c-1.333,0-2.49,0.579-3.268,1.632l-3.989,4.968l-4.022-4.972
			c-0.775-1.05-1.931-1.628-3.262-1.628c-1.503,0-2.481,0.612-3.033,1.125c-0.851,0.781-1.298,1.811-1.298,2.976
			c0,1.024,0.332,1.989,0.961,2.79l0.015,0.018l0.017,0.018l5.278,6.438l-5.256,6.208l-0.033,0.039l-0.037,0.045
			c-0.59,0.77-0.902,1.711-0.902,2.725c0,1.094,0.38,2.086,1.101,2.865c0.535,0.582,1.512,1.279,3.126,1.279
			c1.335,0,2.542-0.619,3.397-1.744l3.83-4.801l4.091,4.898c0.804,1.063,1.979,1.646,3.327,1.646c1.337,0,2.494-0.531,3.257-1.492
			c0.649-0.818,0.989-1.77,0.989-2.756c0-1.014-0.35-1.961-1.014-2.746l-5.291-6.377l5.374-6.323l0.036-0.044l0.035-0.045
			c0.59-0.769,0.903-1.689,0.903-2.662c0-1.102-0.438-2.105-1.262-2.899C370.146,11.829,369.086,11.422,367.881,11.422
			L367.881,11.422z"/>
	</g>
	<g>
		<path fill="#FE943E" d="M28.399,35.654c-0.784,0.111-1.624,0.166-2.521,0.166c-4.455,0-8.014-1.414-10.675-4.242
			c-2.662-2.803-4.021-6.417-4.077-10.844c0.057-4.427,1.415-8.041,4.077-10.844c2.661-2.829,6.22-4.244,10.675-4.244
			c4.427,0,7.985,1.415,10.675,4.244c2.606,2.775,3.965,6.389,4.077,10.844c-0.056,3.307-0.84,6.178-2.353,8.616
			c-1.515,2.439-3.629,4.219-6.347,5.34l3.698,4.074c0.337,0.336,0.504,0.75,0.504,1.24s-0.175,0.91-0.525,1.262
			c-0.35,0.35-0.784,0.523-1.303,0.523s-0.959-0.225-1.323-0.672L28.399,35.654z M25.878,32.25c3.418,0,6.108-1.107,8.069-3.32
			c1.905-2.129,2.858-4.861,2.858-8.196s-0.953-6.066-2.858-8.196c-1.961-2.212-4.651-3.32-8.069-3.32
			c-3.419,0-6.108,1.108-8.069,3.32c-1.906,2.13-2.857,4.861-2.857,8.196s0.951,6.067,2.857,8.196
			C19.77,31.143,22.459,32.25,25.878,32.25z"/>
		<path fill="#222C1C" d="M25.878,5.646c4.427,0,7.985,1.415,10.675,4.244c2.606,2.775,3.965,6.389,4.077,10.844
			c-0.056,3.307-0.84,6.178-2.353,8.616c-1.515,2.439-3.629,4.219-6.347,5.34l3.698,4.074c0.337,0.336,0.504,0.75,0.504,1.24
			s-0.175,0.91-0.525,1.262c-0.35,0.35-0.784,0.523-1.303,0.523s-0.959-0.225-1.323-0.672l-4.582-5.463
			c-0.784,0.111-1.624,0.166-2.521,0.166c-4.455,0-8.014-1.414-10.675-4.242c-2.662-2.803-4.021-6.417-4.077-10.844
			c0.057-4.427,1.415-8.041,4.077-10.844C17.864,7.062,21.423,5.646,25.878,5.646 M25.878,32.25c3.418,0,6.108-1.107,8.069-3.32
			c1.905-2.129,2.858-4.861,2.858-8.196s-0.953-6.066-2.858-8.196c-1.961-2.212-4.651-3.32-8.069-3.32
			c-3.419,0-6.108,1.108-8.069,3.32c-1.906,2.13-2.857,4.861-2.857,8.196s0.951,6.067,2.857,8.196
			C19.77,31.143,22.459,32.25,25.878,32.25 M25.878,3.311c-5.104,0-9.268,1.676-12.375,4.98c-3.061,3.221-4.647,7.399-4.711,12.414
			v0.029v0.029c0.063,5.014,1.65,9.192,4.719,12.422c3.099,3.297,7.262,4.971,12.367,4.971c0.522,0,1.033-0.018,1.529-0.053
			l3.774,4.502c0.804,0.98,1.911,1.52,3.123,1.52c1.141,0,2.161-0.418,2.952-1.209c0.794-0.793,1.211-1.799,1.211-2.912
			c0-1.09-0.394-2.072-1.141-2.844l-1.654-1.824c1.851-1.23,3.387-2.822,4.587-4.756c1.732-2.789,2.642-6.088,2.705-9.806
			l0.001-0.05l-0.002-0.049c-0.126-5.026-1.711-9.192-4.708-12.384C35.111,4.983,30.949,3.311,25.878,3.311L25.878,3.311z
			 M25.878,29.914c-2.743,0-4.812-0.828-6.321-2.531c-1.531-1.712-2.271-3.883-2.271-6.649s0.739-4.937,2.263-6.639
			c1.519-1.714,3.587-2.542,6.329-2.542c2.743,0,4.811,0.828,6.323,2.534c1.53,1.71,2.271,3.882,2.271,6.646
			c0,2.766-0.74,4.937-2.265,6.639C30.689,29.086,28.622,29.914,25.878,29.914L25.878,29.914z"/>
	</g>
	<g>
		<path fill="#FE943E" d="M54.542,32.291c2.466,0,4.763-1.344,6.893-4.035V15.649c0-0.532,0.188-0.981,0.566-1.345
			c0.379-0.365,0.833-0.547,1.367-0.547c0.531,0,0.979,0.183,1.344,0.547c0.363,0.364,0.547,0.813,0.547,1.345v18.029
			c0,0.561-0.184,1.025-0.547,1.389c-0.364,0.363-0.813,0.545-1.344,0.545c-0.534,0-0.988-0.182-1.367-0.545
			c-0.378-0.363-0.566-0.828-0.566-1.389v-1.723c-1.122,1.178-2.088,2.002-2.9,2.48c-1.597,0.924-3.118,1.385-4.561,1.385
			c-1.443,0-2.626-0.215-3.551-0.65c-0.925-0.434-1.709-1.027-2.354-1.787c-1.317-1.539-1.976-3.473-1.976-5.797V15.649
			c0-0.532,0.188-0.981,0.567-1.345c0.379-0.365,0.833-0.547,1.366-0.547c0.532,0,0.98,0.183,1.345,0.547
			c0.363,0.364,0.547,0.813,0.547,1.345v11.515c0,1.598,0.357,2.852,1.071,3.762S52.888,32.291,54.542,32.291z"/>
		<path fill="#222C1C" d="M63.368,13.757c0.531,0,0.979,0.183,1.344,0.547c0.363,0.364,0.547,0.813,0.547,1.345v18.029
			c0,0.561-0.184,1.025-0.547,1.389c-0.364,0.363-0.813,0.545-1.344,0.545c-0.534,0-0.988-0.182-1.367-0.545
			c-0.378-0.363-0.566-0.828-0.566-1.389v-1.723c-1.122,1.178-2.088,2.002-2.9,2.48c-1.597,0.924-3.118,1.385-4.561,1.385
			c-1.443,0-2.626-0.215-3.551-0.65c-0.925-0.434-1.709-1.027-2.354-1.787c-1.317-1.539-1.976-3.473-1.976-5.797V15.649
			c0-0.532,0.188-0.981,0.567-1.345c0.379-0.365,0.833-0.547,1.366-0.547c0.532,0,0.98,0.183,1.345,0.547
			c0.363,0.364,0.547,0.813,0.547,1.345v11.515c0,1.598,0.357,2.852,1.071,3.762s1.897,1.365,3.552,1.365
			c2.466,0,4.763-1.344,6.893-4.035V15.649c0-0.532,0.188-0.981,0.566-1.345C62.38,13.939,62.834,13.757,63.368,13.757
			 M63.368,11.422c-1.14,0-2.171,0.415-2.986,1.199c-0.84,0.809-1.283,1.855-1.283,3.027v11.765
			c-1.506,1.709-3.003,2.541-4.557,2.541c-0.503,0-1.394-0.061-1.714-0.471c-0.382-0.486-0.575-1.266-0.575-2.32V15.649
			c0-1.154-0.424-2.189-1.229-2.995c-0.808-0.806-1.843-1.231-2.997-1.231c-1.139,0-2.171,0.415-2.986,1.199
			c-0.839,0.809-1.282,1.855-1.282,3.027v11.937c0,2.887,0.854,5.348,2.536,7.316c0.855,1.004,1.912,1.809,3.136,2.381
			c1.249,0.588,2.736,0.873,4.543,0.873c1.853,0,3.781-0.572,5.73-1.701c0.089-0.049,0.178-0.105,0.268-0.162
			c0.125,0.16,0.262,0.313,0.411,0.457c0.815,0.781,1.848,1.197,2.985,1.197c1.152,0,2.188-0.424,2.993-1.227
			c0.807-0.809,1.231-1.859,1.231-3.043V15.649c0-1.155-0.425-2.19-1.229-2.996C65.559,11.848,64.521,11.422,63.368,11.422
			L63.368,11.422z"/>
	</g>
</g>
</svg>
